HIERARCHY
ROOT Hips
{
	OFFSET 0.000000 0.000000 0.000000
	CHANNELS 6 Xposition Yposition Zposition Zrotation Yrotation Xrotation
	JOINT LHipJoint
	{
		OFFSET 0.000000 0.000000 0.000000
		CHANNELS 3 Zrotation Yrotation Xrotation
		JOINT LeftUpLeg
		{
			OFFSET 1.363060 -1.794630 0.839290
			CHANNELS 3 Zrotation Yrotation Xrotation
			JOINT LeftLeg
			{
				OFFSET 2.448110 -6.726130 0.000000
				CHANNELS 3 Zrotation Yrotation Xrotation
				JOINT LeftFoot
				{
					OFFSET 2.562200 -7.039590 0.000000
					CHANNELS 3 Zrotation Yrotation Xrotation
					JOINT LeftToeBase
					{
						OFFSET 0.157640 -0.433110 2.322550
						CHANNELS 3 Zrotation Yrotation Xrotation
						End Site
						{
							OFFSET 0.000000 0.000000 0.000000
						}
					}
				}
			}
		}
	}
	JOINT RHipJoint
	{
		OFFSET 0.000000 0.000000 0.000000
		CHANNELS 3 Zrotation Yrotation Xrotation
		JOINT RightUpLeg
		{
			OFFSET -1.305520 -1.794630 0.839290
			CHANNELS 3 Zrotation Yrotation Xrotation
			JOINT RightLeg
			{
				OFFSET -2.542530 -6.985550 0.000000
				CHANNELS 3 Zrotation Yrotation Xrotation
				JOINT RightFoot
				{
					OFFSET -2.568260 -7.056230 0.000000
					CHANNELS 3 Zrotation Yrotation Xrotation
					JOINT RightToeBase
					{
						OFFSET -0.164730 -0.452590 2.363150
						CHANNELS 3 Zrotation Yrotation Xrotation
						End Site
						{
							OFFSET 0.000000 0.000000 0.000000
						}
					}
				}
			}
		}
	}
	JOINT LowerBack
	{
		OFFSET 0.000000 0.000000 0.000000
		CHANNELS 3 Zrotation Yrotation Xrotation
		JOINT Spine
		{
			OFFSET 0.028270 2.035590 -0.193380
			CHANNELS 3 Zrotation Yrotation Xrotation
			JOINT Spine1
			{
				OFFSET 0.056720 2.048850 -0.042750
				CHANNELS 3 Zrotation Yrotation Xrotation
				JOINT Neck
				{
					OFFSET 0.000000 0.000000 0.000000
					CHANNELS 3 Zrotation Yrotation Xrotation
					JOINT Neck1
					{
						OFFSET -0.054170 1.746240 0.172020
						CHANNELS 3 Zrotation Yrotation Xrotation
						JOINT Head
						{
							OFFSET 0.104070 1.761360 -0.123970
							CHANNELS 3 Zrotation Yrotation Xrotation
							End Site
							{
								OFFSET 0.000000 0.000000 0.000000
							}
						}
					}
				}
				JOINT LeftShoulder
				{
					OFFSET 0.000000 0.000000 0.000000
					CHANNELS 3 Zrotation Yrotation Xrotation
					JOINT LeftArm
					{
						OFFSET 3.362410 1.200890 -0.311210
						CHANNELS 3 Zrotation Yrotation Xrotation
						JOINT LeftForeArm
						{
							OFFSET 4.983000 -0.000000 -0.000000
							CHANNELS 3 Zrotation Yrotation Xrotation
							JOINT LeftHand
							{
								OFFSET 3.483560 -0.000000 -0.000000
								CHANNELS 3 Zrotation Yrotation Xrotation
								JOINT LeftFingerBase
								{
									OFFSET 0.000000 0.000000 0.000000
									CHANNELS 3 Zrotation Yrotation Xrotation
									JOINT LeftHandIndex1
									{
										OFFSET 0.715260 -0.000000 -0.000000
										CHANNELS 3 Zrotation Yrotation Xrotation
										End Site
										{
											OFFSET 0.000000 0.000000 0.000000
										}
									}
								}
								JOINT LThumb
								{
									OFFSET 0.000000 0.000000 0.000000
									CHANNELS 3 Zrotation Yrotation Xrotation
									End Site
									{
										OFFSET 0.000000 0.000000 0.000000
									}
								}
							}
						}
					}
				}
				JOINT RightShoulder
				{
					OFFSET 0.000000 0.000000 0.000000
					CHANNELS 3 Zrotation Yrotation Xrotation
					JOINT RightArm
					{
						OFFSET -3.136600 1.374050 -0.404650
						CHANNELS 3 Zrotation Yrotation Xrotation
						JOINT RightForeArm
						{
							OFFSET -5.241900 -0.000000 -0.000000
							CHANNELS 3 Zrotation Yrotation Xrotation
							JOINT RightHand
							{
								OFFSET -3.444170 -0.000000 -0.000000
								CHANNELS 3 Zrotation Yrotation Xrotation
								JOINT RightFingerBase
								{
									OFFSET 0.000000 0.000000 0.000000
									CHANNELS 3 Zrotation Yrotation Xrotation
									JOINT RightHandIndex1
									{
										OFFSET -0.622530 -0.000000 -0.000000
										CHANNELS 3 Zrotation Yrotation Xrotation
										End Site
										{
											OFFSET 0.000000 0.000000 0.000000
										}
									}
								}
								JOINT RThumb
								{
									OFFSET 0.000000 0.000000 0.000000
									CHANNELS 3 Zrotation Yrotation Xrotation
									End Site
									{
										OFFSET 0.000000 0.000000 0.000000
									}
								}
							}
						}
					}
				}
			}
		}
	}
}
MOTION
Frames: 7
Frame Time: 0.008333
-4.654857 11.074633 -13.983109 12.333439 13.056303 -13.448949 -3.924057 1.175946 4.860832 -9.946819 -0.594876 30.634808 -2.186131 -1.692321 -23.995619 -1.693770 -2.260987 9.311720 -0.599722 -11.882808 -20.986799 9.014840 0.100753 1.210871 -4.352105 -11.068394 -3.529054 5.620262 -5.140860 0.296591 0.801187 -5.170962 26.680693 -0.707833 1.178134 -22.904577 3.289735 1.023750 2.489403 0.596473 0.701733 1.644041 0.312980 0.109765 4.729059 -2.351342 -1.631134 -3.055207 0.892924 -0.892281 5.290068 1.132514 1.369630 2.032556 -1.562041 -0.470383 0.270404 -36.505116 9.705085 3.479504 2.143660 -4.746613 -0.813531 0.262371 0.450440 -12.414496 2.251367 4.219452 -3.386345 -4.027493 0.000000 0.000000 33.659760 -11.829230 -8.336296 2.832800 -7.209874 -0.574477 32.224644 1.235875 19.494808 -32.118607 10.598587 -7.593614 -1.924065 0.570559 -5.207281 -35.170231 59.397308 -48.811035 3.269972 0.000000 0.000000 30.559252 -17.657814 25.786377
-4.645247 11.112485 -14.009274 12.374712 12.934811 -13.445518 -3.927767 1.154203 4.943521 -10.058602 -0.573947 30.705608 -2.243489 -1.633277 -23.994768 -1.715730 -2.167506 9.547214 -0.593893 -11.964566 -21.120304 8.909955 0.100084 1.301695 -4.461740 -11.054141 -3.703602 5.608259 -5.133005 0.139837 0.763126 -5.360871 26.403484 -0.697259 1.192531 -23.021677 3.342521 1.046548 2.539307 0.576914 0.704957 1.703990 0.338420 0.116586 4.742704 -2.340514 -1.632323 -3.077607 0.936944 -0.898529 5.363626 1.128127 1.354803 2.077225 -1.567890 -0.447826 0.278406 -36.963245 9.769415 3.595639 2.139145 -4.798139 -0.822237 0.260692 0.449367 -12.419860 2.323398 4.337436 -3.370752 -4.068908 0.000000 0.000000 33.620758 -12.189675 -8.559256 2.967641 -7.224372 -0.606252 32.273205 1.296644 19.500561 -32.130947 10.810025 -7.631120 -1.898003 0.570679 -5.205610 -34.331055 59.204086 -48.729622 3.298760 0.000000 0.000000 29.676683 -18.090273 26.588219
-4.635146 11.158947 -13.992383 12.420003 12.822711 -13.426242 -3.918500 1.139823 5.027614 -10.118989 -0.527935 30.801901 -2.274108 -1.580655 -23.969238 -1.734389 -2.067816 9.796158 -0.583723 -12.016286 -21.255842 8.822359 0.103989 1.397567 -4.555032 -11.011145 -3.817267 5.593719 -5.114833 0.050673 0.733320 -5.515814 26.154278 -0.684598 1.208506 -23.113760 3.398317 1.061994 2.574387 0.557555 0.704748 1.753977 0.357956 0.122747 4.747432 -2.338576 -1.639762 -3.111769 0.976849 -0.917542 5.419899 1.114630 1.333882 2.111033 -1.586980 -0.436953 0.284242 -37.481464 9.812687 3.655273 2.120593 -4.868912 -0.835430 0.257273 0.443795 -12.475920 2.365565 4.402858 -3.375792 -4.115898 0.000000 0.000000 33.438862 -12.705907 -8.929003 3.082911 -7.255507 -0.644905 32.215351 1.315599 19.439354 -32.209805 10.959871 -7.710775 -1.877050 0.565619 -5.248506 -33.805256 58.891247 -48.831013 3.322553 0.000000 0.000000 28.581194 -18.646444 27.156372
-4.623211 11.204710 -13.974064 12.467284 12.717511 -13.394411 -3.897612 1.137073 5.120989 -10.146036 -0.461275 30.920225 -2.296307 -1.498936 -23.859385 -1.742030 -1.928543 10.086245 -0.565246 -12.039295 -21.308065 8.769999 0.118221 1.508932 -4.593904 -10.935619 -3.871551 5.588888 -5.081007 0.016760 0.715043 -5.615747 25.978247 -0.665619 1.240347 -23.170931 3.463821 1.079917 2.617957 0.541201 0.708195 1.808233 0.380446 0.130239 4.757285 -2.333057 -1.645041 -3.142428 1.018281 -0.934704 5.478939 1.102577 1.313694 2.147342 -1.604445 -0.425032 0.290349 -38.000843 9.856484 3.716159 2.102401 -4.937829 -0.848474 0.253910 0.438317 -12.532957 2.405750 4.465692 -3.381691 -4.163237 0.000000 0.000000 33.246128 -13.240620 -9.315774 3.195957 -7.287981 -0.684199 32.148006 1.330401 19.370127 -32.296986 11.100924 -7.796992 -1.857027 0.559750 -5.297276 -33.308445 58.568359 -48.955887 3.345761 0.000000 0.000000 27.441071 -19.236868 27.643106
-4.608477 11.262300 -13.913403 12.518901 12.629368 -13.344403 -3.858932 1.128783 5.200633 -10.174841 -0.413216 31.042414 -2.282307 -1.350166 -23.521585 -1.709769 -1.638196 10.549609 -0.515862 -12.021677 -21.365501 8.744516 0.136055 1.631219 -4.536730 -10.816207 -3.836148 5.594041 -5.031913 0.051056 0.710089 -5.644135 25.890356 -0.637272 1.293569 -23.135857 3.549632 1.105015 2.686079 0.537938 0.727389 1.882433 0.416610 0.145200 4.796807 -2.305191 -1.633930 -3.139946 1.074363 -0.930472 5.569720 1.102198 1.299549 2.197458 -1.607559 -0.403830 0.299679 -38.456734 9.924389 3.803285 2.094112 -4.993838 -0.858576 0.251036 0.433314 -12.581614 2.450057 4.520447 -3.392173 -4.211583 0.000000 0.000000 33.025089 -13.787111 -9.709628 3.308095 -7.320038 -0.724637 32.070980 1.331275 19.273520 -32.423122 11.205244 -7.912886 -1.841299 0.549372 -5.385211 -33.137024 58.103271 -49.275429 3.363482 0.000000 0.000000 26.031477 -19.990858 27.749868
-4.611665 11.297720 -13.931743 12.547842 12.511106 -13.333446 -3.859954 1.106157 5.253649 -10.248189 -0.401628 31.072794 -2.274537 -1.232644 -23.253803 -1.714961 -1.549730 10.751436 -0.506294 -12.029582 -21.434483 8.689521 0.138269 1.714703 -4.571299 -10.745431 -3.882969 5.578862 -5.017490 0.014696 0.686475 -5.764178 25.707748 -0.624306 1.305394 -23.206516 3.609329 1.115540 2.708447 0.523497 0.735399 1.929676 0.436566 0.153102 4.805468 -2.303650 -1.641805 -3.168260 1.119011 -0.946773 5.632150 1.089143 1.275634 2.233583 -1.626411 -0.395688 0.306702 -38.976528 9.970097 3.854241 2.076299 -5.056693 -0.870159 0.248168 0.428733 -12.624899 2.497495 4.597724 -3.391996 -4.258190 0.000000 0.000000 32.865131 -14.260268 -10.041439 3.429346 -7.341487 -0.761763 32.047859 1.361169 19.220137 -32.496349 11.359092 -7.990525 -1.821037 0.544382 -5.423299 -32.631416 57.763588 -49.342854 3.388086 0.000000 0.000000 25.012493 -20.520662 28.329645
-4.616269 11.334646 -13.932731 12.574694 12.403725 -13.316198 -3.860693 1.083577 5.299123 -10.270948 -0.369136 31.121939 -2.246391 -1.137246 -23.010431 -1.719982 -1.486817 10.953565 -0.491960 -12.023800 -21.436903 8.662861 0.141969 1.794541 -4.598227 -10.661962 -3.901332 5.563130 -5.005111 0.004522 0.665888 -5.870220 25.532452 -0.611716 1.317315 -23.275911 3.664227 1.121378 2.717152 0.507980 0.739973 1.962870 0.449001 0.158131 4.803670 -2.310155 -1.655985 -3.206675 1.159292 -0.974046 5.679507 1.068169 1.247483 2.267057 -1.649281 -0.391848 0.313064 -39.522892 10.006575 3.872679 2.053044 -5.125631 -0.883080 0.244638 0.421923 -12.685489 2.534107 4.653973 -3.402403 -4.306142 0.000000 0.000000 32.646530 -14.784312 -10.434961 3.543883 -7.368486 -0.801372 31.992670 1.378254 19.144732 -32.581161 11.502727 -8.073643 -1.801320 0.539565 -5.457283 -32.124245 57.434200 -49.376049 3.413747 0.000000 0.000000 24.051693 -21.025843 28.903227
